<svg xmlns="http://www.w3.org/2000/svg" width="25.968" height="26.243" viewBox="0 0 25.968 26.243">
  <g id="arrow-circle" transform="translate(25.968 26.243) rotate(180)">
    <path id="Path_229" data-name="Path 229" d="M12.984,0a13.122,13.122,0,0,0,0,26.243A13.122,13.122,0,0,0,12.984,0Zm0,24.6a11.482,11.482,0,0,1,0-22.963,11.482,11.482,0,0,1,0,22.963Zm6.492-12.3H8.45l3.484-3.522a.825.825,0,0,0,0-1.161.8.8,0,0,0-1.147,0l-4.87,4.921a.825.825,0,0,0,0,1.161l4.868,4.921a.806.806,0,0,0,1.15,0,.825.825,0,0,0,0-1.161L8.45,13.943H19.476a.82.82,0,0,0,0-1.64Z" transform="translate(0)" fill="#a4bac5"/>
  </g>
</svg>
