<svg id="baby" xmlns="http://www.w3.org/2000/svg" width="37.92" height="29.363" viewBox="0 0 37.92 29.363">
  <path id="Path_10" data-name="Path 10" d="M43.432,130.375a.522.522,0,0,1-.526-.414,13.371,13.371,0,0,0-2.987-4.667A14.686,14.686,0,0,0,25.969,120.9a14.516,14.516,0,0,0-10.912,8.9c-.163.368-.3.646-.77.588a1.55,1.55,0,0,0-.522.093,4.9,4.9,0,0,0,.561,9.631.766.766,0,0,1,.727.592,14.245,14.245,0,0,0,5.348,6.57,14.863,14.863,0,0,0,11.879,2.275,13.944,13.944,0,0,0,3.575-1.316c-.379-.371-.751-.7-1.072-1.068a.492.492,0,0,0-.673-.147,12.277,12.277,0,0,1-7.286.9,12.95,12.95,0,0,1-10.567-9.3c-.05-.151-.108-.3-.159-.441-.248.035-.449.062-.65.093a2.969,2.969,0,0,1-3.115-1.331,2.875,2.875,0,0,1,.012-3.378,2.97,2.97,0,0,1,3.084-1.32c.224.031.449.058.7.089a12.831,12.831,0,0,1,7.468-8.722,3.718,3.718,0,0,0,1.888,4.419,7.31,7.31,0,0,0,4.748.685,4.17,4.17,0,0,0,1.861-.836,2.174,2.174,0,0,0,.232-3.521,3.864,3.864,0,0,0-4.144-.855,1,1,0,0,0-.739,1.323c.182.534.534.669,1.242.437a2.39,2.39,0,0,1,1.993.128c.213.12.491.364.491.549,0,.217-.267.437-.437.642-.05.062-.155.081-.236.116a4.669,4.669,0,0,1-2.887.182,4.2,4.2,0,0,1-1.861-.844,1.241,1.241,0,0,1-.182-1.958A3.409,3.409,0,0,1,27.157,123a8.645,8.645,0,0,1,4.895-.209,12.979,12.979,0,0,1,9.438,8.64c.1.294.19.6.294.913a3.211,3.211,0,0,1,3.78,1.242,2.851,2.851,0,0,1,.031,3.277,3.2,3.2,0,0,1-3.808,1.292c-.17.518-.333,1.006-.5,1.505a.522.522,0,0,0,.132.023,3.9,3.9,0,0,1,2.384.313.573.573,0,0,0,.36,0,4.821,4.821,0,0,0,3.308-2.759A4.892,4.892,0,0,0,43.432,130.375Z" transform="translate(-9.992 -120.568)" fill="#014898"/>
  <path id="Path_11" data-name="Path 11" d="M651.579,645.1a.69.69,0,0,1-.638-.008,2.945,2.945,0,0,0-2.086-.17,3.274,3.274,0,0,0-1.973,4.926,10.024,10.024,0,0,0,4.225,3.633.386.386,0,0,0,.313-.015,10.994,10.994,0,0,0,3.831-3.03,3.841,3.841,0,0,0,.871-2.271A3.262,3.262,0,0,0,651.579,645.1Zm2.577,3.529a6.921,6.921,0,0,1-1.157,1.54,11.9,11.9,0,0,1-1.552,1.172.381.381,0,0,1-.333.039,7.832,7.832,0,0,1-2.585-2.337,1.6,1.6,0,0,1-.24-1.428,1.41,1.41,0,0,1,2.213-.666c.259.205.491.441.747.669.232-.213.453-.426.685-.623a1.375,1.375,0,0,1,1.761-.066A1.322,1.322,0,0,1,654.157,648.633Z" transform="translate(-621.757 -624.525)" fill="#014898"/>
  <path id="Path_12" data-name="Path 12" d="M406.887,590.635a3.6,3.6,0,0,0,7.124-.635.932.932,0,0,0-.832-1.006.906.906,0,0,0-.979.813c-.023.139-.031.279-.058.414a1.762,1.762,0,0,1-3.482-.1,2.479,2.479,0,0,0-.124-.592.883.883,0,0,0-1.041-.5.937.937,0,0,0-.677,1.091C406.845,590.282,406.848,590.464,406.887,590.635Z" transform="translate(-391.459 -570.864)" fill="#014898"/>
  <path id="Path_13" data-name="Path 13" d="M571.947,481.107a1.179,1.179,0,1,0-1.188,1.23A1.175,1.175,0,0,0,571.947,481.107Z" transform="translate(-547.937 -465.995)" fill="#014898"/>
  <path id="Path_14" data-name="Path 14" d="M371.828,485.1a1.17,1.17,0,1,0-1.172,1.23A1.148,1.148,0,0,0,371.828,485.1Z" transform="translate(-355.58 -469.839)" fill="#014898"/>
</svg>
