<svg xmlns="http://www.w3.org/2000/svg" width="51.426" height="31.07" viewBox="0 0 51.426 31.07">
  <g id="bed" transform="translate(0)">
    <g id="Group_331" data-name="Group 331" transform="translate(0 0)">
      <path id="Path_693" data-name="Path 693" d="M444.113,132.4h-.019a3.585,3.585,0,0,1-3.581-3.581V104.916a3.585,3.585,0,0,1,3.581-3.581h.019a3.585,3.585,0,0,1,3.581,3.581v23.908A3.585,3.585,0,0,1,444.113,132.4Zm-.018-28.438a.95.95,0,0,0-.949.949v23.908a.95.95,0,0,0,.949.949h.019a.95.95,0,0,0,.949-.949V104.916a.95.95,0,0,0-.949-.949Z" transform="translate(-396.268 -101.335)" fill="#2d527c"/>
      <path id="Path_694" data-name="Path 694" d="M3.581,171.964A3.585,3.585,0,0,1,0,168.383V148.892a3.581,3.581,0,0,1,7.162,0v19.491A3.585,3.585,0,0,1,3.581,171.964Zm0-24.021a.95.95,0,0,0-.949.949v19.491a.95.95,0,0,0,.949.949h0a.95.95,0,0,0,.949-.949V148.892A.95.95,0,0,0,3.581,147.943Z" transform="translate(0 -140.894)" fill="#2d527c"/>
      <path id="Path_695" data-name="Path 695" d="M86.131,257.545H58.321a1.316,1.316,0,1,1,0-2.632H84.815v-3.892H47.731v3.892h5.02a1.316,1.316,0,1,1,0,2.632H46.415a1.316,1.316,0,0,1-1.316-1.316V249.7a1.316,1.316,0,0,1,1.316-1.316H86.131a1.316,1.316,0,0,1,1.316,1.316v6.524A1.316,1.316,0,0,1,86.131,257.545Z" transform="translate(-40.569 -233.619)" fill="#2d527c"/>
    </g>
    <path id="Path_696" data-name="Path 696" d="M354.909,185.416a1.188,1.188,0,0,0,1.184,1.184h7.158a1.188,1.188,0,0,0,1.184-1.184v-5.973a1.188,1.188,0,0,0-1.184-1.184h-7.158a1.188,1.188,0,0,0-1.184,1.184v5.973Z" transform="translate(-319.261 -170.532)" fill="#cee8fa"/>
    <path id="Path_697" data-name="Path 697" d="M351.466,176.129h-7.158a2.5,2.5,0,0,1-2.5-2.5v-5.973a2.5,2.5,0,0,1,2.5-2.5h7.158a2.5,2.5,0,0,1,2.5,2.5v5.973A2.5,2.5,0,0,1,351.466,176.129ZM344.44,173.5h6.895v-5.71H344.44Z" transform="translate(-307.476 -158.745)" fill="#2d527c"/>
    <path id="Path_698" data-name="Path 698" d="M58.2,197.909H79.809a2.98,2.98,0,0,1,2.971,2.971v2.081a1.188,1.188,0,0,1-1.184,1.184H58.2Z" transform="translate(-52.354 -188.209)" fill="#cee8fa"/>
    <path id="Path_699" data-name="Path 699" d="M69.811,193.675h-23.4a1.316,1.316,0,0,1-1.316-1.316v-6.237a1.316,1.316,0,0,1,1.316-1.316H68.024a4.292,4.292,0,0,1,4.287,4.287v2.081A2.5,2.5,0,0,1,69.811,193.675Zm-22.08-2.632H69.679v-1.95a1.657,1.657,0,0,0-1.655-1.655H47.731Z" transform="translate(-40.569 -176.423)" fill="#2d527c"/>
  </g>
</svg>
