<svg xmlns="http://www.w3.org/2000/svg" width="33.02" height="33.229" viewBox="0 0 33.02 33.229">
  <g id="bone" transform="translate(0.5 0.517)">
    <g id="Group_7" data-name="Group 7" transform="translate(0 0)">
      <path id="Path_15" data-name="Path 15" d="M294.292,35.623a4.377,4.377,0,0,0-2.342.487,14.07,14.07,0,0,1-6.028,1.686,6.816,6.816,0,0,1-3.875-1.026,4.556,4.556,0,0,1-1.431-1.493h3.143a.274.274,0,0,0,0-.549h-3.391a2.423,2.423,0,0,1-.141-.974,1.4,1.4,0,0,1,.8-1.222,7.225,7.225,0,0,0,3.7-5.871,5.307,5.307,0,0,0-3.107-4.956,13.6,13.6,0,0,0-6.018-1.683c-1.718-.14-2.3-.189-2.176-1.8a11.62,11.62,0,0,0,.007-1.356h6.746a.274.274,0,1,0,0-.549h-6.789c-.036-.448-.088-.912-.154-1.388h1.8a.274.274,0,0,0,0-.549H273.16a67.415,67.415,0,0,0-1.555-7.112.275.275,0,0,0-.529.15c.02.072,2.052,7.357,1.8,10.758-.16,2.16,1.032,2.258,2.679,2.391a13.1,13.1,0,0,1,5.8,1.614,4.792,4.792,0,0,1,2.826,4.459,6.734,6.734,0,0,1-3.391,5.394,1.932,1.932,0,0,0-1.108,1.679,4.17,4.17,0,0,0,2.068,3.512,7.264,7.264,0,0,0,4.058,1.121h.127a14.621,14.621,0,0,0,6.276-1.748l.02-.01a3.918,3.918,0,0,1,2.042-.412.276.276,0,0,0,.288-.261A.284.284,0,0,0,294.292,35.623Z" transform="translate(-262.536 -7.065)" fill="#014898" stroke="#014898" stroke-width="1"/>
      <path id="Path_16" data-name="Path 16" d="M29.864,462.777a3.992,3.992,0,0,0-2.48-3.806,11.177,11.177,0,0,0-4.95-1.46,4.877,4.877,0,0,0-4.832,2.32,3.733,3.733,0,0,1-3.218,1.558c-.265-.042-.529-.091-.787-.137-1.163-.216-2.261-.418-2.957.157a2.306,2.306,0,0,0-.64,1.869c0,1.369,1.026,2.248,2.215,3.267,1.349,1.157,2.875,2.467,3.349,4.855l.578,3.362a.276.276,0,0,0,.271.229.2.2,0,0,0,.046,0,.272.272,0,0,0,.222-.317L16.1,471.3a8.641,8.641,0,0,0-3.287-4.966h.947c.189.167.441.386.608.529A7.409,7.409,0,0,1,17.39,471.4l.585,3.358a.276.276,0,0,0,.271.229.2.2,0,0,0,.046,0,.272.272,0,0,0,.222-.317l-.582-3.365a7.9,7.9,0,0,0-3.2-4.855c-.042-.036-.085-.075-.131-.111h2.378a.274.274,0,1,0,0-.549H12.228c-.016,0-.029,0-.046,0a3.973,3.973,0,0,1-1.614-2.241h3.113a.274.274,0,1,0,0-.549H10.555a1.57,1.57,0,0,1,.438-1.17c.5-.412,1.473-.232,2.506-.039.261.049.533.1.8.141a3.319,3.319,0,0,0,.5.039,4.435,4.435,0,0,0,3.254-1.833c0-.007.01-.013.013-.02a4.287,4.287,0,0,1,4.339-2.061,10.637,10.637,0,0,1,4.721,1.4,3.478,3.478,0,0,1,2.186,3.3.064.064,0,0,1,0,.026H23.855a.274.274,0,1,0,0,.549h5.387a4.856,4.856,0,0,1-2.552,3.31l-.127.056c-1.17.5-3.5,1.483-3.551,3.646H21.141a.274.274,0,1,0,0,.549h1.9c0,.016,0,.036.007.052.091.572.189,1.081.291,1.529h-2.3a.274.274,0,1,0,0,.549h2.431a13.328,13.328,0,0,0,.565,1.8.274.274,0,1,0,.5-.216,17.413,17.413,0,0,1-.951-3.747c-.34-2.16,1.95-3.133,3.182-3.656l.127-.056A5.3,5.3,0,0,0,29.864,462.777Z" transform="translate(-10 -442.778)" fill="#014898" stroke="#014898" stroke-width="1"/>
      <path id="Path_17" data-name="Path 17" d="M259.217,492.792a9.758,9.758,0,0,1,4.348,1.287.271.271,0,0,0,.369-.114.276.276,0,0,0-.114-.372,10.321,10.321,0,0,0-4.577-1.349,4.513,4.513,0,0,0-4.482,2.163.273.273,0,0,0,.1.376.268.268,0,0,0,.14.039.281.281,0,0,0,.238-.134A3.932,3.932,0,0,1,259.217,492.792Z" transform="translate(-246.727 -476.377)" fill="#014898" stroke="#014898" stroke-width="1"/>
      <path id="Path_18" data-name="Path 18" d="M718.349,655.2a4.109,4.109,0,0,0-1.264.2,3.226,3.226,0,0,0-2.424,3.809,2.929,2.929,0,0,0,2.93,1.875,4.111,4.111,0,0,0,1.264-.2,3.226,3.226,0,0,0,2.424-3.809A2.929,2.929,0,0,0,718.349,655.2Zm.336,5.162a3.52,3.52,0,0,1-1.094.176,2.4,2.4,0,0,1-2.408-1.493,2.681,2.681,0,0,1,2.071-3.117,3.521,3.521,0,0,1,1.094-.176,2.4,2.4,0,0,1,2.408,1.493A2.683,2.683,0,0,1,718.685,660.362Z" transform="translate(-691.526 -634.025)" fill="#014898" stroke="#014898" stroke-width="1"/>
      <path id="Path_19" data-name="Path 19" d="M449.774,11.751H453a16.343,16.343,0,0,0,3.679,7.217,15.01,15.01,0,0,0,10.18,4.881h.026a.273.273,0,0,0,.026-.546,14.7,14.7,0,0,1-13.346-11.549H454.7a16.8,16.8,0,0,0,.813,2.388,13.05,13.05,0,0,0,3.718,5.025,14.469,14.469,0,0,0,7.491,3.012c.013,0,.023,0,.036,0a.272.272,0,0,0,.271-.242.275.275,0,0,0-.238-.307c-5.224-.66-8.844-3.247-10.768-7.7a16.841,16.841,0,0,1-1.333-6.56.275.275,0,1,0-.549-.02,12.708,12.708,0,0,0,.069,1.617h-2.976a.274.274,0,0,0,0,.549h3.038c.065.5.157,1.068.294,1.679h-4.789a.274.274,0,0,0,0,.549Z" transform="translate(-435.141 -7.091)" fill="#014898" stroke="#014898" stroke-width="1"/>
    </g>
  </g>
</svg>
