<svg id="calendar-white" xmlns="http://www.w3.org/2000/svg" width="21.546" height="21.612" viewBox="0 0 21.546 21.612">
  <path id="Path_222" data-name="Path 222" d="M17.711,21.445H14.63V18.29h3.08v3.155Zm4.654-3.155h-3.08v3.155h3.08V18.29Zm4.654,0h-3.08v3.155h3.08V18.29ZM17.711,22.9H14.63v3.153h3.08V22.9Zm4.654,0h-3.08v3.153h3.08V22.9Zm4.654,0h-3.08v3.153h3.08V22.9Zm1.148-10.971a.95.95,0,1,1-1.9,0V9.476a.95.95,0,1,1,1.9,0v2.449ZM15.329,9.472a.951.951,0,1,0-1.9,0v2.447a.951.951,0,1,0,1.9,0V9.472Zm13.988,1.42v1a2.1,2.1,0,1,1-4.2,0v-1H16.477v.992a2.1,2.1,0,1,1-4.2,0v-.992H10v19.22H31.546V10.892Zm.139,17.079H12.091V16.061H29.453v11.91Z" transform="translate(-10 -8.5)" fill="#fffffe"/>
</svg>
