<svg xmlns="http://www.w3.org/2000/svg" width="25.814" height="22.432" viewBox="0 0 25.814 22.432">
  <g id="camera" transform="translate(0)">
    <g id="Group_365" data-name="Group 365" transform="translate(0 0)">
      <g id="Group_364" data-name="Group 364" transform="translate(0 0)">
        <path id="Path_743" data-name="Path 743" d="M260.7,164.77a1.053,1.053,0,0,0-1.458-.372l-3.537,2.048-.9.527v4.9l.838.5c.031,0,.031.031.062.031l3.475,2.017a.955.955,0,0,0,.59.186,1.046,1.046,0,0,0,1.055-1.055v-4.158l.031-4.1A.812.812,0,0,0,260.7,164.77Z" transform="translate(-235.04 -153.198)" fill="#9eb6c5"/>
        <path id="Path_744" data-name="Path 744" d="M5,31.792a5,5,0,1,0-5-5A4.992,4.992,0,0,0,5,31.792Zm0-7.043A2.048,2.048,0,1,1,2.948,26.8,2.007,2.007,0,0,1,5,24.749Z" transform="translate(0 -21.802)" fill="#9eb6c5"/>
        <path id="Path_745" data-name="Path 745" d="M30.941,150.512a5.946,5.946,0,0,1-2.668.652,5.8,5.8,0,0,1-3.227-.962H21.509a5.8,5.8,0,0,1-3.227.962,5.567,5.567,0,0,1-2.668-.652,2.426,2.426,0,0,0-1.21,2.079v7.57a2.522,2.522,0,0,0,2.513,2.513H29.669a2.522,2.522,0,0,0,2.513-2.513v-7.57A2.523,2.523,0,0,0,30.941,150.512Z" transform="translate(-13.287 -140.243)" fill="#9eb6c5"/>
        <path id="Path_746" data-name="Path 746" d="M133.8,31.792a5,5,0,1,0-5-5A4.992,4.992,0,0,0,133.8,31.792Zm0-7.043a2.048,2.048,0,1,1-2.048,2.048A2.046,2.046,0,0,1,133.8,24.749Z" transform="translate(-118.813 -21.802)" fill="#9eb6c5"/>
      </g>
    </g>
  </g>
</svg>
