<svg id="_2e7099feee991816622dde5afa7d2549" data-name="2e7099feee991816622dde5afa7d2549" xmlns="http://www.w3.org/2000/svg" width="34.617" height="31.979" viewBox="0 0 34.617 31.979">
  <g id="heart" transform="translate(0 0)">
    <path id="Path_8" data-name="Path 8" d="M18.5-463.648a9.3,9.3,0,0,0-8.337,7.454,14.562,14.562,0,0,0-.034,4.043,18.65,18.65,0,0,0,3,7.352,43.048,43.048,0,0,0,8.738,9.146,61.941,61.941,0,0,0,5.443,3.968c.116,0,2.7-1.848,4.077-2.9a56.2,56.2,0,0,0,5.735-5.008c4.634-4.641,6.992-8.881,7.448-13.393a9.357,9.357,0,0,0-7.651-10.539,11.846,11.846,0,0,0-3.431,0,10.075,10.075,0,0,0-5.654,3.255,4.763,4.763,0,0,1-.537.557,4.534,4.534,0,0,1-.523-.544,10.036,10.036,0,0,0-5.511-3.234A14.9,14.9,0,0,0,18.5-463.648Zm1.855,2a7.819,7.819,0,0,1,4.6,2.344,12.017,12.017,0,0,1,1.9,2.562,3.643,3.643,0,0,0,.442.666,3.644,3.644,0,0,0,.442-.666,9.767,9.767,0,0,1,4.26-4.26,7.61,7.61,0,0,1,8.507,1.434,7.32,7.32,0,0,1,2.079,4.294,12.719,12.719,0,0,1-.1,3.105c-.8,4.573-4.22,9.35-10.342,14.453a59.289,59.289,0,0,1-4.845,3.656,24.266,24.266,0,0,1-2.446-1.753c-6.917-5.239-11.11-10.3-12.428-15.01a9.992,9.992,0,0,1-.442-3.35,6.179,6.179,0,0,1,.177-1.977,7.279,7.279,0,0,1,3.377-4.546A7.789,7.789,0,0,1,20.35-461.65Z" transform="translate(-10 463.664)" fill="#0066b3"/>
    <path id="Path_9" data-name="Path 9" d="M337.64-177.379c-.027.027-.048,1.026-.048,2.215V-173l-2.188.014-2.195.02v2.922l2.188.021,2.195.013.014,2.195.02,2.188h2.922l.021-2.188.013-2.195,2.195-.013,2.188-.021v-2.922l-2.188-.02L340.582-173l-.013-2.195-.021-2.188-1.434-.02C338.333-177.414,337.667-177.4,337.64-177.379Z" transform="translate(-321.793 187.52)" fill="#0066b3"/>
  </g>
</svg>
