<svg xmlns="http://www.w3.org/2000/svg" width="45" height="45" viewBox="0 0 45 45">
  <g id="hospital_ico" transform="translate(-123 -385)">
    <g id="Group_338" data-name="Group 338" transform="translate(123 385)">
      <circle id="Ellipse_21" data-name="Ellipse 21" cx="22.5" cy="22.5" r="22.5" fill="#fff"/>
    </g>
    <g id="hospital" transform="translate(132.911 391.099)">
      <path id="Path_704" data-name="Path 704" d="M192.577,384.618h-7.366v-4.5a1.671,1.671,0,0,1,1.671-1.671h4.025a1.671,1.671,0,0,1,1.671,1.671v4.5Z" transform="translate(-175.975 -358.758)" fill="#cee8fa"/>
      <g id="Group_334" data-name="Group 334" transform="translate(0 6.038)">
        <path id="Path_705" data-name="Path 705" d="M178.4,371.216h-7.366a.778.778,0,0,1-.778-.778v-4.5a2.452,2.452,0,0,1,2.449-2.449h4.025a2.452,2.452,0,0,1,2.449,2.449v4.5A.778.778,0,0,1,178.4,371.216Zm-6.588-1.557h5.81v-3.721a.893.893,0,0,0-.892-.892H172.7a.893.893,0,0,0-.892.892Z" transform="translate(-161.793 -350.615)" fill="#2d527c"/>
        <path id="Path_706" data-name="Path 706" d="M13.214,310.636H8.466a.778.778,0,0,1-.778-.778v-7.394a2.883,2.883,0,0,1,2.88-2.88.778.778,0,1,1,0,1.557,1.325,1.325,0,0,0-1.323,1.323v6.616h3.969a.778.778,0,0,1,0,1.557Z" transform="translate(-7.688 -290.035)" fill="#2d527c"/>
        <path id="Path_707" data-name="Path 707" d="M388.676,310.635h-4.747a.778.778,0,0,1,0-1.557H387.9v-6.616a1.325,1.325,0,0,0-1.323-1.323.778.778,0,1,1,0-1.557,2.883,2.883,0,0,1,2.88,2.88v7.394A.778.778,0,0,1,388.676,310.635Z" transform="translate(-363.615 -290.034)" fill="#2d527c"/>
        <path id="Path_708" data-name="Path 708" d="M169.9,295.163h-8.353a.778.778,0,1,1,0-1.557H169.9a.778.778,0,0,1,0,1.557Z" transform="translate(-152.805 -284.368)" fill="#2d527c"/>
        <path id="Path_709" data-name="Path 709" d="M169.9,232.335h-8.353a.778.778,0,1,1,0-1.557H169.9a.778.778,0,0,1,0,1.557Z" transform="translate(-152.805 -224.809)" fill="#2d527c"/>
        <path id="Path_710" data-name="Path 710" d="M114.5,136.646H99.712a.778.778,0,0,1-.778-.778V119.477a3.443,3.443,0,0,1,3.22-3.431l.049,0h9.806l.049,0a3.443,3.443,0,0,1,3.22,3.431v16.391A.778.778,0,0,1,114.5,136.646Zm-14.009-1.557h13.231V119.477a1.884,1.884,0,0,0-1.739-1.876h-9.753a1.884,1.884,0,0,0-1.739,1.876V135.09Z" transform="translate(-94.187 -116.045)" fill="#2d527c"/>
      </g>
      <path id="Path_711" data-name="Path 711" d="M171.018,14.959h0a1.675,1.675,0,0,0-1.675,1.675v1.315h-1.315a1.675,1.675,0,0,0-1.675,1.675h0a1.675,1.675,0,0,0,1.675,1.675h1.315v1.315a1.675,1.675,0,0,0,1.675,1.675h0a1.675,1.675,0,0,0,1.675-1.675V21.3h1.315a1.675,1.675,0,0,0,1.675-1.675h0a1.675,1.675,0,0,0-1.675-1.675h-1.315V16.634A1.675,1.675,0,0,0,171.018,14.959Z" transform="translate(-158.099 -14.181)" fill="#cee8fa"/>
      <path id="Path_712" data-name="Path 712" d="M156.838,10.885a2.456,2.456,0,0,1-2.453-2.453V7.9h-.537a2.453,2.453,0,1,1,0-4.906h.537V2.453a2.453,2.453,0,0,1,4.906,0V2.99h.537a2.453,2.453,0,0,1,0,4.906h-.537v.537A2.456,2.456,0,0,1,156.838,10.885Zm-2.99-6.339a.9.9,0,1,0,0,1.793h1.315a.778.778,0,0,1,.778.778V8.432a.9.9,0,1,0,1.793,0V7.117a.778.778,0,0,1,.778-.778h1.315a.9.9,0,0,0,0-1.793h-1.315a.778.778,0,0,1-.778-.778V2.453a.9.9,0,1,0-1.793,0V3.768a.778.778,0,0,1-.778.778Z" transform="translate(-143.918)" fill="#2d527c"/>
    </g>
  </g>
</svg>
