<svg xmlns="http://www.w3.org/2000/svg" width="20.558" height="20.549" viewBox="0 0 20.558 20.549">
  <g id="icon-hotline" transform="translate(0 0)">
    <g id="Group_25" data-name="Group 25">
      <path id="Path_231" data-name="Path 231" d="M19.276-500.759a10.387,10.387,0,0,0-5.468,2.258,14.5,14.5,0,0,0-1.644,1.678,10.327,10.327,0,0,0-1.973,4.342,10.289,10.289,0,0,0,1.973,8.277,13.176,13.176,0,0,0,1.7,1.712,10.278,10.278,0,0,0,4.936,2.166,12.7,12.7,0,0,0,2.969,0,10.346,10.346,0,0,0,8.118-6.464,9.682,9.682,0,0,0,.677-3.723,9.547,9.547,0,0,0-.677-3.713,10.354,10.354,0,0,0-8.045-6.464A14.324,14.324,0,0,0,19.276-500.759Zm1.934,2.031a8.555,8.555,0,0,1,3.626,1.31,8.329,8.329,0,0,1,3.723,6.9,8.107,8.107,0,0,1-.435,2.616,8.345,8.345,0,0,1-4.172,4.791,8.249,8.249,0,0,1-9.607-1.682,7.724,7.724,0,0,1-1.45-2.045,8.237,8.237,0,0,1,1.441-9.394,8.3,8.3,0,0,1,4.989-2.5A9.814,9.814,0,0,1,21.21-498.728Z" transform="translate(-10.002 500.79)" fill="#fff"/>
      <path id="Path_232" data-name="Path 232" d="M255.889-238.96l-.169.169.024,1.8a7.551,7.551,0,0,0,.377,3.167,6.975,6.975,0,0,0,4.216,4.216,7.554,7.554,0,0,0,3.167.377l1.8.024.169-.169.169-.169v-1.262c0-1.417-.019-1.5-.314-1.629a11.115,11.115,0,0,0-2.659.01c-.256.121-.314.3-.314.986v.59l-.324-.034a5.306,5.306,0,0,1-4.269-3.23,5.529,5.529,0,0,1-.363-1.4l-.034-.319.657-.019.657-.014.155-.16.159-.155.014-1.2c.019-1.349,0-1.509-.246-1.653-.145-.087-.251-.1-1.426-.1h-1.276Z" transform="translate(-250.565 244.619)" fill="#fff"/>
    </g>
  </g>
</svg>
