<svg xmlns="http://www.w3.org/2000/svg" width="24.999" height="17.577" viewBox="0 0 24.999 17.577">
  <g id="mail" transform="translate(0 -76)">
    <g id="Group_341" data-name="Group 341" transform="translate(17.197 77.256)">
      <g id="Group_340" data-name="Group 340">
        <path id="Path_729" data-name="Path 729" d="M359.793,101.721l-7.582,7.533,7.582,7.533a2.172,2.172,0,0,0,.22-.941V102.662A2.172,2.172,0,0,0,359.793,101.721Z" transform="translate(-352.211 -101.721)" fill="#adc6d9"/>
      </g>
    </g>
    <g id="Group_343" data-name="Group 343" transform="translate(1.256 76)">
      <g id="Group_342" data-name="Group 342">
        <path id="Path_730" data-name="Path 730" d="M47.267,76h-20.6a2.172,2.172,0,0,0-.941.22l9.69,9.641a2.2,2.2,0,0,0,3.107,0l9.69-9.641A2.172,2.172,0,0,0,47.267,76Z" transform="translate(-25.721 -76)" fill="#adc6d9"/>
      </g>
    </g>
    <g id="Group_345" data-name="Group 345" transform="translate(0 77.256)">
      <g id="Group_344" data-name="Group 344">
        <path id="Path_731" data-name="Path 731" d="M.22,101.721a2.172,2.172,0,0,0-.22.941v13.183a2.171,2.171,0,0,0,.22.941L7.8,109.254Z" transform="translate(0 -101.721)" fill="#adc6d9"/>
      </g>
    </g>
    <g id="Group_347" data-name="Group 347" transform="translate(1.256 85.824)">
      <g id="Group_346" data-name="Group 346">
        <path id="Path_732" data-name="Path 732" d="M40.626,277.211l-1.073,1.073a3.666,3.666,0,0,1-5.178,0L33.3,277.211l-7.582,7.533a2.172,2.172,0,0,0,.941.22h20.6a2.172,2.172,0,0,0,.941-.22Z" transform="translate(-25.721 -277.211)" fill="#adc6d9"/>
      </g>
    </g>
  </g>
</svg>
