<svg xmlns="http://www.w3.org/2000/svg" width="44" height="44" viewBox="0 0 44 44">
  <g id="menu_icon" data-name="menu icon" transform="translate(-100 -88)">
    <g id="menu-icon" transform="translate(100 88)" fill="#fff" stroke="#0066b3" stroke-width="1">
      <circle cx="22" cy="22" r="22" stroke="none"/>
      <circle cx="22" cy="22" r="21.5" fill="none"/>
    </g>
    <g id="pharmacy" transform="translate(106.71 95.21)">
      <path id="Path_725" data-name="Path 725" d="M33.5,28.66a2.389,2.389,0,0,1-2.389,2.389H29.914V24.237A4.218,4.218,0,0,1,34.037,20a4.166,4.166,0,0,1,1.85.4A4.181,4.181,0,0,0,33.5,24.18Zm-9.914,5.375a4.181,4.181,0,0,1,4.181-4.181H24.181a4.181,4.181,0,0,0,0,8.362h3.584A4.181,4.181,0,0,1,23.584,34.035ZM33.5,44.009v-4.6a2.389,2.389,0,0,0-2.389-2.389H29.914v6.931a4.218,4.218,0,0,0,4.123,4.237,4.166,4.166,0,0,0,1.85-.4A4.181,4.181,0,0,1,33.5,44.009Z" transform="translate(-18.805 -18.805)" fill="#c6e1f2"/>
      <path id="Path_726" data-name="Path 726" d="M15.29,30.579A5.381,5.381,0,0,1,9.914,25.2v-4.6H5.375a5.375,5.375,0,0,1,0-10.751H9.914V5.375a5.375,5.375,0,1,1,10.751,0V9.855H25.2a5.381,5.381,0,0,1,5.375,5.375,1.195,1.195,0,0,1-2.389,0A2.99,2.99,0,0,0,25.2,12.244H19.47a1.194,1.194,0,0,1-1.195-1.195V5.375a2.986,2.986,0,1,0-5.973,0v5.674a1.194,1.194,0,0,1-1.195,1.195H5.375a2.986,2.986,0,1,0,0,5.973h5.734A1.194,1.194,0,0,1,12.3,19.411V25.2a2.986,2.986,0,0,0,5.973,0V19.411a1.195,1.195,0,0,1,2.389,0V25.2A5.381,5.381,0,0,1,15.29,30.579Z" fill="#0023c4"/>
      <path id="Path_727" data-name="Path 727" d="M386.27,301.743h-1.075a1.195,1.195,0,1,1,0-2.389h1.075a2.973,2.973,0,0,0,1.194-.258,1.194,1.194,0,1,1,.956,2.189A5.345,5.345,0,0,1,386.27,301.743Z" transform="translate(-361.066 -281.138)" fill="#ff5cf4"/>
    </g>
  </g>
</svg>
