<svg xmlns="http://www.w3.org/2000/svg" width="23.459" height="23.457" viewBox="0 0 23.459 23.457">
  <g id="phone" transform="translate(0.003)">
    <g id="_003---Call" data-name="003---Call" transform="translate(-0.003)">
      <path id="Shape" d="M10.711,13.78A9.467,9.467,0,0,1,7.853,8.4a.8.8,0,0,1,.231-.673L9.9,5.92a.809.809,0,0,0,.114-1L7.125.44A.809.809,0,0,0,6.077.145L1.446,2.326A.8.8,0,0,0,1,3.13,22.387,22.387,0,0,0,7.818,16.672,22.38,22.38,0,0,0,21.36,23.489a.8.8,0,0,0,.8-.445l2.181-4.631a.809.809,0,0,0-.293-1.046l-4.48-2.884a.809.809,0,0,0-1,.113l-1.811,1.812a.8.8,0,0,1-.673.231,9.467,9.467,0,0,1-5.375-2.859Z" transform="translate(-0.997 -0.035)" fill="#adc6d9"/>
      <path id="Shape-2" data-name="Shape" d="M35.684,18.493a.809.809,0,0,1-.809-.809,6.074,6.074,0,0,0-6.067-6.067.809.809,0,1,1,0-1.618,7.693,7.693,0,0,1,7.684,7.684A.809.809,0,0,1,35.684,18.493Z" transform="translate(-17.079 -5.956)" fill="#adc6d9"/>
      <path id="Shape-3" data-name="Shape" d="M39.729,12.538a.809.809,0,0,1-.809-.809A10.122,10.122,0,0,0,28.809,1.618a.809.809,0,1,1,0-1.618A11.742,11.742,0,0,1,40.538,11.729a.809.809,0,0,1-.809.809Z" transform="translate(-17.079)" fill="#adc6d9"/>
    </g>
  </g>
</svg>
