<svg id="place" xmlns="http://www.w3.org/2000/svg" width="16.498" height="22.701" viewBox="0 0 16.498 22.701">
  <path id="Path_236" data-name="Path 236" d="M303.363,167.4a4.733,4.733,0,0,0,0,9.465,4.64,4.64,0,0,0,3.461-1.561.494.494,0,0,0-.737-.658,3.66,3.66,0,0,1-2.724,1.23,3.746,3.746,0,1,1,3.676-3.746.493.493,0,1,0,.987,0A4.7,4.7,0,0,0,303.363,167.4Z" transform="translate(-295.114 -163.754)" fill="#fffffe"/>
  <path id="Path_237" data-name="Path 237" d="M152.149,10a8.4,8.4,0,0,0-6.514,13.516l6.106,8.969a.494.494,0,0,0,.815,0l6.09-8.946a8.406,8.406,0,0,0-6.5-13.54Zm5.7,12.96-5.7,8.369-5.717-8.392a7.263,7.263,0,1,1,11.415.023Z" transform="translate(-143.9 -10)" fill="#fffffe"/>
</svg>
