<svg id="register" xmlns="http://www.w3.org/2000/svg" width="31.872" height="31.865" viewBox="0 0 31.872 31.865">
  <g id="Group_30" data-name="Group 30" transform="translate(0 0)">
    <path id="Path_241" data-name="Path 241" d="M24.93-501.877a16.008,16.008,0,0,0-6.4,1.8,16.131,16.131,0,0,0-6.848,6.954A15.442,15.442,0,0,0,10-485.95a14.879,14.879,0,0,0,.617,4.484,16.04,16.04,0,0,0,10.1,10.589,14.966,14.966,0,0,0,5.114.848,14.766,14.766,0,0,0,4.864-.711,15.234,15.234,0,0,0,6.486-3.954,14.7,14.7,0,0,0,3.056-4.241,15.952,15.952,0,0,0,.087-13.876,15.46,15.46,0,0,0-3.137-4.4,15.589,15.589,0,0,0-9.143-4.546A23.29,23.29,0,0,0,24.93-501.877Zm7.789,6.454a1.5,1.5,0,0,1,1.035.748l.187.337.019,3.954.019,3.948-.5-.455-.5-.461-.006-3.318c0-1.946-.025-3.38-.062-3.474a.469.469,0,0,0-.181-.224c-.143-.075-16.233-.1-16.352-.025-.237.143-.243.275-.243,5.875,0,3.8.019,5.482.069,5.619a.545.545,0,0,0,.193.262c.081.044,1.628.062,4.746.056l4.627-.006.5.505.5.5H21.543a47.074,47.074,0,0,1-5.432-.087,1.742,1.742,0,0,1-.823-.817l-.15-.312v-5.581c0-6.049.006-6.08.337-6.517a1.6,1.6,0,0,1,.967-.53C16.9-495.5,32.351-495.5,32.719-495.423Zm-11.781,2.75a.454.454,0,0,1,.125.243c0,.075.075.112.268.143a.91.91,0,0,0,.374,0,.714.714,0,0,1,.6.224,7.647,7.647,0,0,1,.062,1.31c0,1.179,0,1.191-.156,1.341l-.15.156H20.153c-1.883,0-1.921,0-2.064-.137s-.143-.156-.143-1.391c0-1.534-.019-1.5.773-1.5.493,0,.505-.006.524-.156.05-.324.162-.374.892-.374C20.745-492.81,20.82-492.8,20.939-492.673Zm10.664-.075a.562.562,0,0,1,.187.586c-.131.355-.106.349-3.075.349H25.983l-.15-.156a.52.52,0,0,1-.031-.7c.131-.137.131-.137,2.906-.137C30.4-492.81,31.528-492.785,31.6-492.747Zm.087,3.174a.649.649,0,0,1,.118.355.4.4,0,0,1-.168.381l-.175.15-2.775-.019-2.775-.019-.118-.15a.562.562,0,0,1,.006-.692c.118-.118.206-.125,2.95-.125C31.472-489.692,31.59-489.686,31.69-489.573Zm-7.615,2.4c.112.05,1.2,1.085,2.445,2.339s2.276,2.252,2.307,2.252a.247.247,0,0,0,.143-.075c.056-.056-.15-.3-.917-1.079a7.529,7.529,0,0,1-1.041-1.179.86.86,0,0,1,.96-1.06c.194.031.4.212,1.247,1.041.954.948,1.017,1,1.116.9s.062-.15-.617-.836c-.823-.836-.9-1-.7-1.435a.8.8,0,0,1,1.073-.43,10.367,10.367,0,0,1,.979.9,7.756,7.756,0,0,0,.879.817.243.243,0,0,0,.143-.081c.05-.069.031-.118-.094-.237-.574-.524-.692-1.06-.318-1.459a.7.7,0,0,1,.929-.162,14.569,14.569,0,0,1,1.8,1.671c1.5,1.509,1.54,1.559,1.827,2.139a4.194,4.194,0,0,1,.474,1.915,5.249,5.249,0,0,1-.78,2.675,7.387,7.387,0,0,1-1.759,1.752l-.337.162-1.883.019c-1.035.012-2.413.062-3.068.118-1.4.118-1.827.075-2.345-.237-.773-.461-.829-1.116-.131-1.5a4.5,4.5,0,0,1,2.183-.274c1.16.05,1.4-.05,1.291-.505-.025-.112-1.222-1.353-3.436-3.567-3.517-3.523-3.574-3.585-3.474-3.984a.938.938,0,0,1,.536-.624A.609.609,0,0,1,24.075-487.173Zm-2.108,2.127a.486.486,0,0,1,.156.343.488.488,0,0,1-.156.343l-.15.156H19.467c-2.333,0-2.357,0-2.5-.137a.485.485,0,0,1,.012-.7l.15-.156h4.69Z" transform="translate(-10 501.894)" fill="#fff"/>
    <path id="Path_242" data-name="Path 242" d="M302.284-214.577a.206.206,0,0,0-.044.131c0,.062.15.081.661.081.593,0,.655-.012.636-.112s-.106-.106-.617-.125A2.758,2.758,0,0,0,302.284-214.577Z" transform="translate(-292.736 223.947)" fill="#fff"/>
  </g>
</svg>
