<svg id="stethoscope" xmlns="http://www.w3.org/2000/svg" width="36.432" height="39.933" viewBox="0 0 36.432 39.933">
  <g id="Group_332" data-name="Group 332">
    <path id="Path_700" data-name="Path 700" d="M31.11,20.071A8.677,8.677,0,0,1,22.443,11.4V2.743A2.746,2.746,0,0,1,25.186,0h2.523a1.144,1.144,0,1,1,0,2.287H25.186a.456.456,0,0,0-.456.456V11.4a6.38,6.38,0,1,0,12.76,0V2.743a.456.456,0,0,0-.456-.456H34.511a1.144,1.144,0,0,1,0-2.287h2.523a2.746,2.746,0,0,1,2.743,2.743V11.4A8.677,8.677,0,0,1,31.11,20.071Z" transform="translate(-22.443)" fill="#2d527c"/>
    <path id="Path_701" data-name="Path 701" d="M129.851,310.366a10.956,10.956,0,0,1-10.944-10.944v-4.969a1.144,1.144,0,0,1,2.287,0v4.969a8.657,8.657,0,0,0,17.313,0V298.25a1.144,1.144,0,0,1,2.287,0v1.172A10.956,10.956,0,0,1,129.851,310.366Z" transform="translate(-111.383 -270.433)" fill="#2d527c"/>
  </g>
  <circle id="Ellipse_18" data-name="Ellipse 18" cx="7.02" cy="7.02" r="7.02" transform="translate(21.248 8.652)" fill="#cee8fa"/>
  <g id="Group_333" data-name="Group 333" transform="translate(20.103 7.507)">
    <path id="Path_702" data-name="Path 702" d="M288.357,112.576a8.165,8.165,0,1,1,8.165-8.165A8.174,8.174,0,0,1,288.357,112.576Zm0-14.042a5.877,5.877,0,1,0,5.877,5.878A5.884,5.884,0,0,0,288.357,98.534Z" transform="translate(-280.192 -96.247)" fill="#2d527c"/>
    <circle id="Ellipse_19" data-name="Ellipse 19" cx="1.28" cy="1.28" r="1.28" transform="translate(6.885 6.885)" fill="#2d527c"/>
    <path id="Path_703" data-name="Path 703" d="M356.223,174.7a2.424,2.424,0,1,1,2.424-2.424A2.426,2.426,0,0,1,356.223,174.7Zm0-2.56a.136.136,0,1,0,.136.137A.137.137,0,0,0,356.223,172.142Z" transform="translate(-348.058 -164.114)" fill="#2d527c"/>
  </g>
</svg>
