<svg id="stomach" xmlns="http://www.w3.org/2000/svg" width="30.83" height="30.216" viewBox="0 0 30.83 30.216">
  <g id="Group_5" data-name="Group 5" transform="translate(0 0)">
    <g id="Group_4" data-name="Group 4">
      <path id="Path_7" data-name="Path 7" d="M21.947,19.9h3.706s-.456,9.027,3.335,6.488c1.737-1.161,4.7-3.222,8.341-.091,2.86,2.46,5.405,6.5,1.482,15.014-2.045,4.442-8.841,11.455-19.186,3.8-1.573-1.164-5.745-3.986-6.025,5.006H9.991S9.85,39.6,15.922,40.385c3.146.406,10.42,2.328,11.584-5.191.242-1.557.919-3.477-2.781-5.654C23.152,28.609,21.853,27.775,21.947,19.9Z" transform="translate(-9.991 -19.9)" fill="#014898"/>
    </g>
  </g>
</svg>
