<svg xmlns="http://www.w3.org/2000/svg" width="20.003" height="20.002" viewBox="0 0 20.003 20.002">
  <g id="time-gray" transform="translate(0.5 0.5)">
    <path id="Path_238" data-name="Path 238" d="M19.5,10a9.5,9.5,0,1,0,6.719,2.783A9.445,9.445,0,0,0,19.5,10Zm5.877,15.38A8.314,8.314,0,1,1,27.814,19.5,8.257,8.257,0,0,1,25.378,25.38Z" transform="translate(-10 -10)" fill="#a0a9ae" stroke="#a0a9ae" stroke-width="1"/>
    <path id="Path_239" data-name="Path 239" d="M447.787,207.634v-6.141a.593.593,0,1,0-1.187,0v6.533a.592.592,0,0,0,.361.545" transform="translate(-438.134 -197.198)" fill="#a0a9ae" stroke="#a0a9ae" stroke-width="1"/>
    <path id="Path_240" data-name="Path 240" d="M454.445,534.863a.663.663,0,0,1-.663.663h-4.419a.663.663,0,0,1-.663-.663h0a.663.663,0,0,1,.663-.663h4.419a.663.663,0,0,1,.663.663Z" transform="translate(-440.193 -524.036)" fill="#a0a9ae" stroke="#a0a9ae" stroke-width="1"/>
  </g>
</svg>
