<svg xmlns="http://www.w3.org/2000/svg" width="17.219" height="19" viewBox="0 0 17.219 19">
  <g id="Contact_List" data-name="Contact List" transform="translate(-32)">
    <g id="Glyph" transform="translate(32)">
      <path id="Path_752" data-name="Path 752" d="M464.594,307.563H464V304h.594a.594.594,0,0,1,.594.594v2.375A.594.594,0,0,1,464.594,307.563Z" transform="translate(-447.969 -292.719)" fill="#fffffe"/>
      <path id="Path_753" data-name="Path 753" d="M91.578,464.594H80.3a.3.3,0,0,1,0-.594H91.578a.3.3,0,0,1,0,.594Z" transform="translate(-78.219 -446.781)" fill="#fffffe"/>
      <path id="Path_754" data-name="Path 754" d="M43.875,0h-9.8A2.078,2.078,0,0,0,32,2.078V15.987a.148.148,0,0,0,.281.065,1.948,1.948,0,0,1,1.8-1.209h9.8a1.187,1.187,0,0,0,1.188-1.188V1.188A1.188,1.188,0,0,0,43.875,0ZM36.7,3.8a2.386,2.386,0,0,1,3.6-.023,2.292,2.292,0,0,1,.424.717,2.3,2.3,0,0,0-.9-.332h0a.885.885,0,0,0-.459.07h0a2.662,2.662,0,0,1-.828.221,2.652,2.652,0,0,1-.826-.22h0a.891.891,0,0,0-.387-.076h0A2.087,2.087,0,0,0,36.3,4.49a2.288,2.288,0,0,1,.4-.691ZM36.215,5.45a1.357,1.357,0,0,1,1.12-.7h0a.3.3,0,0,1,.129.025h0a3.33,3.33,0,0,0,1.067.271A3.332,3.332,0,0,0,39.6,4.776l.074-.033.081.009a1.569,1.569,0,0,1,1.04.615l.063.094-.016.112c-.008.058-.017.11-.027.158L40.5,7.161l0,.013a2.1,2.1,0,0,1-3.981,0l-.007-.027-.306-1.414c-.007-.035-.013-.069-.019-.1l-.016-.1Zm6.473,6.425a.594.594,0,0,1-.594.594H34.969a.594.594,0,0,1-.594-.594v-1.4a1.488,1.488,0,0,1,1.193-1.456l1.269-.254a.423.423,0,0,1,.506.415V9.2a1.188,1.188,0,0,0,1.211,1.187,1.2,1.2,0,0,0,1.164-1.211.423.423,0,0,1,.506-.415l1.269.254a1.488,1.488,0,0,1,1.193,1.456Z" transform="translate(-32)" fill="#fffffe"/>
      <path id="Path_755" data-name="Path 755" d="M61.061,16.594a.594.594,0,0,1,.594.594v2.375a.594.594,0,0,1-.594.594v8.906a1.783,1.783,0,0,1-1.781,1.781h-9.8A1.769,1.769,0,0,0,48,32.625a1.714,1.714,0,0,0,1.781,1.781H60.467a2.375,2.375,0,0,0,2.375-2.375V17.484A1.484,1.484,0,0,0,61.358,16h-.3Zm.594,8.313V21.344h0a.594.594,0,0,1,.594.594v2.375A.594.594,0,0,1,61.655,24.906Z" transform="translate(-47.405 -15.406)" fill="#fffffe"/>
    </g>
  </g>
</svg>
