<svg xmlns="http://www.w3.org/2000/svg" width="34.936" height="35" viewBox="0 0 34.936 35">
  <g id="youtube" transform="translate(-10 -9.1)">
    <path id="Path_216" data-name="Path 216" d="M481.1,293.724a.556.556,0,0,0,.4-.135.5.5,0,0,0,.15-.381v-3.269a.388.388,0,0,0-.15-.317.6.6,0,0,0-.4-.121.527.527,0,0,0-.364.121.4.4,0,0,0-.139.317v3.269a.532.532,0,0,0,.132.381A.48.48,0,0,0,481.1,293.724Z" transform="translate(-453.824 -270.404)" fill="#e31212"/>
    <path id="Path_217" data-name="Path 217" d="M514.568,526.771a1.111,1.111,0,0,0-.506.128,1.72,1.72,0,0,0-.463.378V524.9h-1.1v7.386h1.1v-.417a1.415,1.415,0,0,0,.463.367,1.257,1.257,0,0,0,.57.118.9.9,0,0,0,.738-.307,1.335,1.335,0,0,0,.257-.884V528.14a1.609,1.609,0,0,0-.275-1.02A.923.923,0,0,0,514.568,526.771Zm-.061,4.235a.6.6,0,0,1-.093.374.354.354,0,0,1-.292.118.621.621,0,0,1-.264-.061.864.864,0,0,1-.257-.193v-3.394a.823.823,0,0,1,.221-.167.536.536,0,0,1,.232-.053.412.412,0,0,1,.339.143.65.65,0,0,1,.114.421Z" transform="translate(-484.586 -497.412)" fill="#e31212"/>
    <path id="Path_218" data-name="Path 218" d="M283.6,525.973h1.269v6.313H286.1v-6.313h1.269V524.9H283.6Z" transform="translate(-263.846 -497.412)" fill="#e31212"/>
    <path id="Path_219" data-name="Path 219" d="M404.614,583.339a1.538,1.538,0,0,1-.339.292.621.621,0,0,1-.3.114.255.255,0,0,1-.221-.086.468.468,0,0,1-.068-.278V579.2H402.6v4.556a1.181,1.181,0,0,0,.189.727.676.676,0,0,0,.57.242,1.315,1.315,0,0,0,.631-.171,2.357,2.357,0,0,0,.627-.506v.6h1.087V579.2h-1.087v4.139Z" transform="translate(-378.604 -549.777)" fill="#e31212"/>
    <path id="Path_220" data-name="Path 220" d="M27.468,9.1A17.5,17.5,0,1,0,44.936,26.6,17.485,17.485,0,0,0,27.468,9.1Zm2.592,9.108h1.223v4.6a.494.494,0,0,0,.078.307.29.29,0,0,0,.25.1.732.732,0,0,0,.342-.125,1.6,1.6,0,0,0,.374-.324V18.208h1.226v6H32.327v-.663a2.692,2.692,0,0,1-.7.56,1.569,1.569,0,0,1-.709.2.764.764,0,0,1-.638-.274,1.26,1.26,0,0,1-.214-.8V18.208Zm-4.542,1.372a1.373,1.373,0,0,1,.492-1.109,2.011,2.011,0,0,1,1.33-.414,1.8,1.8,0,0,1,1.248.435,1.446,1.446,0,0,1,.481,1.123v3.1a1.566,1.566,0,0,1-.474,1.208,1.864,1.864,0,0,1-1.312.438A1.794,1.794,0,0,1,26,23.909a1.589,1.589,0,0,1-.481-1.216Zm-3.333-3.5.895,3.251h.089l.852-3.251h1.4l-1.6,4.763v3.372H22.441V20.985L20.8,16.076ZM38.209,33.2a3.929,3.929,0,0,1-3.925,3.932H20.648A3.928,3.928,0,0,1,16.727,33.2V30.033A3.931,3.931,0,0,1,20.648,26.1H34.284a3.929,3.929,0,0,1,3.925,3.932Z" transform="translate(0 0)" fill="#e31212"/>
    <path id="Path_221" data-name="Path 221" d="M617.85,575.4a1.634,1.634,0,0,0-1.191.446A1.539,1.539,0,0,0,616.2,577v2.449a1.736,1.736,0,0,0,.421,1.233,1.489,1.489,0,0,0,1.151.449,1.617,1.617,0,0,0,1.219-.421,1.752,1.752,0,0,0,.41-1.262v-.278h-1.116v.246a1.219,1.219,0,0,1-.107.624.452.452,0,0,1-.382.143.4.4,0,0,1-.367-.164,1.206,1.206,0,0,1-.107-.6V578.4H619.4v-1.39a1.647,1.647,0,0,0-.4-1.187A1.532,1.532,0,0,0,617.85,575.4Zm.431,2.143h-.963v-.549a.805.805,0,0,1,.114-.488.427.427,0,0,1,.371-.153.422.422,0,0,1,.364.153.812.812,0,0,1,.114.488v.549Z" transform="translate(-584.59 -546.112)" fill="#e31212"/>
  </g>
</svg>
